<?xml version="1.0" encoding="UTF-8"?>
<svg width="185px" height="226px" viewBox="0 0 185 226" version="1.1" xmlns="http://www.w3.org/2000/svg" xmlns:xlink="http://www.w3.org/1999/xlink">
    <!-- Generator: Sketch 48.2 (47327) - http://www.bohemiancoding.com/sketch -->
    <title>Slice</title>
    <desc>Created with Sketch.</desc>
    <defs></defs>
    <g id="Page-1" stroke="none" stroke-width="1" fill="none" fill-rule="evenodd">
        <g id="map-pin" fill="#007BFF" stroke="#000000" stroke-linecap="round" stroke-linejoin="round" stroke-width="2">
            <path d="M185,92.4545446 C185,164.363636 92.5,226 92.5,226 C92.5,226 0,164.363636 0,92.4545446 C7.61245779e-07,41.3933094 41.4136612,-2.28100368e-15 92.5,0 C143.586339,2.28100368e-15 184.999999,41.3933094 185,92.4545446 Z" id="Shape"></path>
        </g>
        <g id="map-pin" transform="translate(19.000000, 23.000000)" fill="#FFFFFF" stroke="#000000" stroke-linecap="round" stroke-linejoin="round" stroke-width="2">
            <path d="M147,73.636363 C147,130.909091 73.5,180 73.5,180 C73.5,180 0,130.909091 0,73.636363 C6.04881781e-07,32.9681225 32.9070713,-1.8167286e-15 73.5,0 C114.092929,1.8167286e-15 146.999999,32.9681225 147,73.636363 Z" id="Shape"></path>
        </g>
        <g id="002-wedding-couple" transform="translate(40.000000, 44.000000)" fill="#000000" fill-rule="nonzero">
            <path d="M71.5,47 C70.6715047,47 70,47.7096134 70,48.5846556 L70,50.4153444 C70,51.2905976 70.6717044,52 71.5,52 C72.3282956,52 73,51.2903866 73,50.4153444 L73,48.5846556 C73,47.7094024 72.3284953,47 71.5,47 Z" id="Shape"></path>
            <path d="M83.5,47 C82.6717044,47 82,47.7096134 82,48.5846556 L82,50.4153444 C82,51.2903866 82.6715047,52 83.5,52 C84.3284953,52 85,51.2903866 85,50.4153444 L85,48.5846556 C85,47.7094024 84.3282956,47 83.5,47 Z" id="Shape"></path>
            <path d="M82.3394705,55.3176458 C81.6277458,54.7737031 80.6357279,54.9455099 80.1235482,55.7016847 C79.8117591,56.1620821 79.034083,56.626522 78,56.626522 C76.965917,56.626522 76.1882409,56.1620821 75.8764518,55.7016847 C75.3642721,54.9455099 74.3722542,54.7737031 73.6605295,55.3176458 C72.9488048,55.8618131 72.7868858,56.9157864 73.2990655,57.6719611 C74.286433,59.1297366 76.0438667,60 78,60 C79.9563447,60 81.713567,59.1297366 82.7009345,57.6719611 C83.2131142,56.9157864 83.0511952,55.8618131 82.3394705,55.3176458 Z" id="Shape"></path>
            <path d="M22.5,49 C21.6715047,49 21,49.7179761 21,50.6033305 L21,52.3966695 C21,53.2822374 21.6717044,54 22.5,54 C23.3282956,54 24,53.2822374 24,52.3966695 L24,50.6033305 C24,49.7177626 23.3282956,49 22.5,49 Z" id="Shape"></path>
            <path d="M31.3924046,57.3209762 C30.7376257,56.7713305 29.8249803,56.9449386 29.3539751,57.7090415 C29.0830791,58.1481681 28.4049639,58.5913795 27.5000972,58.5913795 C26.5952306,58.5913795 25.9171154,58.1481681 25.6462193,57.7090415 C25.1750197,56.9449386 24.2621798,56.7713305 23.6075954,57.3209762 C22.9528165,57.8708489 22.8040474,58.9358726 23.2750525,59.6999754 C24.1631948,61.1403559 25.7424817,62 27.4999028,62 C29.2573238,62 30.8368052,61.140129 31.7249475,59.6999754 C32.1959526,58.9360995 32.0471835,57.8708489 31.3924046,57.3209762 Z" id="Shape"></path>
            <path d="M60.5,81 C59.6715047,81 59,81.6801038 59,82.518757 L59,85.481243 C59,86.3200984 59.6715047,87 60.5,87 C61.3284953,87 62,86.3198962 62,85.481243 L62,82.518757 C62.0001997,81.6799016 61.3284953,81 60.5,81 Z" id="Shape"></path>
            <path d="M59.8037846,3.61037655e-16 C57.2547828,3.61037655e-16 54.8550861,0.909526437 53,2.54017015 C51.1449139,0.909526437 48.7452172,0 46.1962154,0 C40.5739798,0 36,4.4706019 36,9.96576754 C35.9997921,14.8036352 38.887122,19.4565489 44.3494471,23.4214744 C48.3307809,26.3114311 52.2651189,27.8319154 52.4306439,27.895125 C52.6136364,27.9650417 52.8066102,28 52.9997921,28 C53.1929739,28 53.3859477,27.9650417 53.5689402,27.895125 C53.7344652,27.8319154 57.6685953,26.3114311 61.650137,23.4214744 C67.11267,19.4563456 70,14.8036352 70,9.96576754 C70,4.4706019 65.4260202,3.61037655e-16 59.8037846,3.61037655e-16 Z M52.9995841,24.8153364 C50.3193683,23.6552075 39.1231407,18.3078017 39.1231407,9.96597079 C39.1231407,6.1540896 42.2959805,3.05296013 46.1960074,3.05296013 C48.3863025,3.05296013 50.4179347,4.02142795 51.7697916,5.70999681 C52.0656987,6.07970152 52.5194368,6.29575216 52.9995841,6.29575216 C53.4797314,6.29575216 53.9334695,6.07970152 54.2293767,5.70999681 C55.5814414,4.02142795 57.6130737,3.05296013 59.8031608,3.05296013 C63.7031877,3.05296013 66.8760275,6.1540896 66.8760275,9.96597079 C66.8760275,18.3090212 55.6773045,23.6566302 52.9995841,24.8153364 Z" id="Shape"></path>
            <path d="M96.0628927,68.7033018 L86.3268003,65.8376477 C86.2806577,65.8237079 86.2334897,65.8116131 86.1855013,65.8017732 L84.6578731,65.4948926 C84.2946794,65.4219136 84.0309487,65.1000682 84.0309487,64.7296385 L84.0309487,63.995134 C88.0293604,62.172505 91.1223513,58.7002646 92.4287001,54.4508803 L93.6060546,54.4508803 C95.6832927,54.4508803 97.373343,52.7614994 97.373343,50.685084 L97.373343,48.2181493 C97.373343,47.1074751 96.8799246,46.0701899 96.0614571,45.36541 L96.0614571,42.6500187 C96.0614571,33.7996801 88.8582869,26.5993629 80.0044413,26.5993629 L75.2615954,26.5993629 C66.4077499,26.5993629 59.2045796,33.7996801 59.2045796,42.6500187 L59.2045796,45.36541 C58.3861121,46.0701899 57.8926937,47.1074751 57.8926937,48.2181493 L57.8926937,50.685084 C57.8926937,52.7614994 59.582744,54.4508803 61.6599821,54.4508803 L62.8373367,54.4508803 C64.113744,58.602481 67.0933267,62.0152723 70.9584374,63.8698808 L70.9584374,64.7851927 C70.9584374,65.1556224 70.6947067,65.4776729 70.331513,65.5506518 L69.1043245,65.7972633 C69.1032991,65.7974683 69.1022737,65.7976733 69.1010432,65.7978783 L69.0805354,65.8019782 C69.032342,65.8116131 68.985174,65.8239129 68.9388263,65.8378527 L59.2031441,68.7033018 C55.8121743,69.7012276 53.082172,72.0968234 51.5680789,75.1406199 C50.9122385,74.0994398 50.093771,73.1636281 49.1428229,72.3750044 L52.8955507,71.1870463 C55.0449764,70.5066611 56.4550948,68.4577153 56.3250752,66.2047975 C56.0937469,62.1989497 55.1188046,54.0847555 51.1884789,44.7487788 C46.3055646,33.1502494 39.3066523,28.7077578 34.1007396,27.0440015 C32.771217,25.2021028 30.6076409,24 28.167004,24 C25.7263671,24 23.562586,25.2021028 22.2330633,27.0440015 C17.0271506,28.7079628 10.0282383,33.1504544 5.14532398,44.7487788 C1.21458816,54.0847555 0.239645917,62.1989497 0.00831759217,66.2045925 C-0.12190713,68.4575103 1.28841635,70.5064561 3.43784204,71.1868413 L7.19036481,72.3747994 C4.59796999,74.5246037 2.98687485,77.7670424 2.98687485,81.2601925 L2.98687485,98.460472 C2.98687485,99.3107998 3.67655318,100 4.5270129,100 L103.459862,99.9899551 C104.310527,99.9899551 105,99.300755 105,98.4504271 L105,80.6464313 C105,75.1631696 101.324792,70.2518497 96.0628927,68.7033018 Z M48.3489648,45.9430917 C52.1004622,54.8543145 53.0296719,62.5738893 53.2495159,66.3821199 C53.2983245,67.2279379 52.7702479,67.9966769 51.9653156,68.2514883 L45.4380834,70.3178588 C45.3164719,70.2774743 45.1944503,70.2393449 45.0724287,70.2034704 L36.1521378,67.5776629 C36.1088663,67.5647481 36.0649796,67.5540882 36.0204776,67.5450683 L34.6222537,67.2640173 C34.3503199,67.2094881 34.1530346,66.9686166 34.1530346,66.6914605 L34.1530346,65.9850406 C34.2123022,65.959211 34.269314,65.9294864 34.3281714,65.9028368 C34.489363,65.8300628 34.6495291,65.7562639 34.8076445,65.677955 C34.8857793,65.6392105 34.9628888,65.5988261 35.0402033,65.5586467 C35.1993441,65.4764429 35.3568442,65.3923941 35.5127037,65.3048603 C35.5799694,65.2669359 35.6466198,65.2283964 35.7132703,65.189447 C35.88287,65.0906384 36.050419,64.9883448 36.2157121,64.8831813 C36.2639055,64.8524318 36.3120989,64.8220922 36.3596771,64.7907277 C36.5524507,64.6650645 36.741943,64.5348913 36.9283592,64.4006182 C36.9466112,64.3874984 36.9652733,64.3747886 36.9835253,64.3614638 C39.5822775,62.4734407 41.5569765,59.7771142 42.5288426,56.642299 L43.6643611,56.642299 C45.7024293,56.642299 47.3606924,54.9846927 47.3606924,52.9474317 L47.3606924,50.5590108 C47.3606924,50.4456475 47.3537198,50.333924 47.3436709,50.2232256 C47.34121,50.196371 47.338544,50.1697214 47.3356729,50.1430718 C47.3233682,50.0340133 47.3077822,49.9257749 47.286249,49.8195864 C47.2848135,49.8126165 47.2827627,49.8058516 47.2813271,49.7990867 C47.2602041,49.6984331 47.2339541,49.5996245 47.2048329,49.5020459 C47.1974501,49.4774463 47.1900673,49.4528466 47.1822743,49.428452 C47.1496669,49.3269784 47.1137782,49.2271448 47.0727625,49.1297712 C47.0682508,49.1191114 47.0631238,49.1090665 47.0586121,49.0984067 C47.0200574,49.009438 46.9778113,48.9227242 46.932694,48.8374454 C46.9212096,48.8157157 46.9099303,48.793986 46.8978307,48.7724613 C46.8469713,48.6808276 46.7930357,48.5912439 46.7349985,48.5047352 C46.7265903,48.4922303 46.7175669,48.4805455 46.7089536,48.4682457 C46.6558383,48.3913718 46.5998519,48.3167528 46.5411995,48.2441839 C46.5264339,48.2259391 46.5120784,48.2074894 46.4969026,48.1894497 C46.4300471,48.1097058 46.3605256,48.0326269 46.2873126,47.959033 C46.2750079,47.9465281 46.2618829,47.9348433 46.2493731,47.9225435 C46.1837481,47.8583794 46.1158671,47.7966753 46.0457304,47.7374311 C46.0287089,47.7230813 46.0120975,47.7085265 45.994871,47.6943817 C45.9142752,47.6287827 45.8310134,47.5662586 45.7448805,47.5074244 C45.7286793,47.4963546 45.7118629,47.4861047 45.6956617,47.4754449 C45.6562867,47.4494102 45.6173218,47.4227606 45.5769214,47.398161 C45.5765112,47.1425296 45.5685132,46.8881282 45.5568237,46.6341369 C45.5527221,46.5418882 45.5467749,46.4504595 45.5412377,46.3586208 C45.531394,46.2005681 45.5192944,46.0431303 45.505144,45.8858976 C45.4944799,45.7649493 45.4844311,45.643796 45.471306,45.5236677 C45.4665892,45.4820533 45.4604369,45.4406439 45.455515,45.3990295 C44.9436396,41.0026623 42.7874463,37.1034129 39.6181662,34.3300075 C39.6179612,34.3298025 39.6177561,34.3298025 39.6177561,34.3295975 C39.3224433,34.0710962 39.0193376,33.8214098 38.7070033,33.5832032 C38.6920326,33.5717234 38.6774721,33.5596285 38.6622963,33.5481487 C38.5665247,33.4755797 38.4687023,33.4054707 38.3712902,33.3349517 C38.2568565,33.2517229 38.1418075,33.1693141 38.0253231,33.0887502 C37.9459578,33.034016 37.8665925,32.9796918 37.7864068,32.9263926 C37.6141411,32.8115942 37.4398245,32.6996658 37.263047,32.5906074 C37.23167,32.5713376 37.2011134,32.5510429 37.1697364,32.5319782 C36.9472264,32.3968851 36.72082,32.267122 36.4915424,32.1416638 C36.456269,32.122394 36.4205853,32.1041493 36.3853119,32.0850846 C36.1882316,31.9791011 35.9888955,31.8770125 35.7870985,31.778409 C35.7401355,31.7554493 35.6931726,31.7324896 35.6460046,31.7099399 C35.5887878,31.6826753 35.5325963,31.6535657 35.4749693,31.6267111 C35.479481,31.5215476 35.481942,31.4163841 35.481942,31.3114256 C35.481942,31.1759226 35.4776353,31.0414445 35.4702525,30.9075814 C35.4698423,30.9012265 35.4700474,30.8948716 35.4696373,30.8885167 C39.6694358,32.8802682 44.6267936,37.101568 48.3489648,45.9430917 Z M33.9817942,54.1321098 C34.832459,54.1321098 35.5219322,53.4427047 35.5219322,52.5925818 L35.5219322,50.8706064 C35.5219322,50.5221114 35.4046274,50.2017009 35.2093929,49.9436096 L40.1185573,49.9436096 L40.1185573,52.2022674 C40.1185573,52.4152593 40.11261,52.6284563 40.1009206,52.8420632 C40.1001002,52.856003 40.0984596,52.8697378 40.0978444,52.8836776 C40.0861549,53.0853948 40.0701588,53.2871119 40.0482154,53.488829 C40.0476002,53.4937489 40.046985,53.4984639 40.0463697,53.5033838 C40.023401,53.7116608 39.9951001,53.9197329 39.9612622,54.1271899 C39.9596216,54.1376447 39.9573657,54.1478946 39.9557251,54.1583494 C39.9231177,54.3547366 39.8855883,54.5505089 39.8433422,54.7456661 C39.8246801,54.8309448 39.8047875,54.9158136 39.7842797,55.0006824 C39.7551585,55.1214257 39.7241917,55.241554 39.6913792,55.3610673 C39.6688206,55.4434761 39.6456467,55.5256799 39.6212424,55.6074738 C39.596633,55.6896776 39.5720236,55.7718814 39.5457736,55.8532653 C39.5172677,55.942029 39.486711,56.0297677 39.4561544,56.1175065 C39.410627,56.2478846 39.3632539,56.3774428 39.3132148,56.5057709 C39.2925019,56.5592752 39.2715839,56.6125744 39.2500507,56.6656687 C39.1177752,56.991819 38.9717594,57.3118194 38.8117983,57.623825 C38.8074917,57.6320249 38.8033901,57.6404297 38.7990835,57.6486296 C37.9968172,59.2037374 36.8584275,60.5702479 35.4784556,61.6429976 C35.4638951,61.6542724 35.4495396,61.6659573 35.434979,61.6770271 C35.3506918,61.7420112 35.2651742,61.8055603 35.1790413,61.8682894 C35.131053,61.9031389 35.0824494,61.9373734 35.0340509,61.9714029 C34.9212579,62.0511468 34.8068242,62.1288407 34.69116,62.2046896 C34.6117947,62.2565538 34.5324294,62.3082131 34.4518336,62.3582324 C34.3903102,62.3965668 34.3281714,62.4340813 34.2658276,62.4713908 C34.1565209,62.5363748 34.0463938,62.6001289 33.9350363,62.6618331 C33.8899191,62.6868427 33.8448019,62.7116473 33.7994796,62.736247 C33.672331,62.804511 33.5437469,62.8703151 33.4139324,62.9338642 C33.3681999,62.9564138 33.3220573,62.9785535 33.2759147,63.0004882 C33.1270278,63.0712122 32.9769105,63.1400912 32.8247424,63.2046653 C32.8073107,63.2120452 32.789674,63.2188101 32.7720373,63.225985 C32.6334043,63.2839992 32.4931308,63.3389384 32.3520369,63.3918276 C32.299947,63.4113024 32.2476521,63.4305721 32.195152,63.4494318 C32.1014312,63.4830513 32.0066851,63.5140059 31.9119389,63.5453704 C31.8260111,63.57366 31.7402883,63.6029746 31.6539504,63.6294192 C31.5659718,63.6562739 31.4767627,63.6802585 31.3879638,63.7050632 C31.2376414,63.7470876 31.0864987,63.786447 30.9347408,63.8225265 C30.833227,63.8467161 30.7321234,63.8715208 30.6297893,63.8930455 C30.5471428,63.9104702 30.4640861,63.92482 30.3810294,63.9406048 C30.2811562,63.9594645 30.1814882,63.9781193 30.0807947,63.994314 C29.9995837,64.0074338 29.9181676,64.0189137 29.8367515,64.0303935 C29.7303159,64.0453583 29.623265,64.0590931 29.5160091,64.0711879 C29.4397199,64.0797978 29.3634308,64.0879977 29.2869366,64.0951726 C29.1659404,64.1064474 29.0441239,64.1152623 28.9218972,64.1230522 C28.8579128,64.1271521 28.7941335,64.1320721 28.7299439,64.135147 C28.5431176,64.1439619 28.355471,64.1494968 28.1663888,64.1494968 C27.9721796,64.1494968 27.7789959,64.1439619 27.5870426,64.134737 C27.5283902,64.1318671 27.4699429,64.1267421 27.4114955,64.1230522 C27.2769642,64.1146473 27.1424328,64.1052174 27.0091319,64.0923026 C26.943917,64.0859477 26.8789072,64.0779528 26.8138974,64.0705729 C26.6863387,64.0562231 26.5593952,64.0404384 26.433067,64.0219886 C26.3692876,64.0127638 26.3057133,64.0025139 26.2421391,63.9922641 C26.1133499,63.9713544 25.9849709,63.9483947 25.8576172,63.923385 C25.799375,63.9119052 25.7411328,63.9004254 25.6830956,63.8881255 C25.5477439,63.859426 25.4134176,63.8280614 25.2799117,63.7948519 C25.231103,63.782757 25.1822944,63.7710722 25.1336908,63.7583624 C24.9829583,63.718798 24.8336613,63.6759536 24.6853897,63.6308542 C24.6554482,63.6216293 24.6250966,63.6134295 24.5951552,63.6039996 C23.8652815,63.3750179 23.1655544,63.0777721 22.5031515,62.7198472 C22.4820284,62.7083674 22.4611104,62.6968876 22.4401924,62.6854077 C22.2921259,62.6042289 22.1459051,62.5201801 22.0019401,62.4332613 C21.9656412,62.4111216 21.9299576,62.388162 21.8938638,62.3658173 C21.7958364,62.3051381 21.6990394,62.242614 21.6028577,62.1790649 C21.5277991,62.1292507 21.4529455,62.0792314 21.3791173,62.0277771 C21.352252,62.0093274 21.326002,61.9898526 21.2993418,61.9711979 C19.4029828,60.6284671 17.9112432,58.746184 17.0505296,56.5822348 C17.0449925,56.56809 17.0392503,56.5539452 17.0337131,56.5398005 C16.9576291,56.3462832 16.8872872,56.150101 16.8214571,55.9524838 C16.8103829,55.9190693 16.7982833,55.8860648 16.7876192,55.8524453 C16.7599336,55.7663465 16.7340937,55.6796327 16.7082539,55.592919 C16.68508,55.5146101 16.6627265,55.4356862 16.6409882,55.3565573 C16.6112518,55.2485239 16.582951,55.1400804 16.5564959,55.031022 C16.533117,54.9352884 16.5107635,54.8393497 16.4898455,54.7425911 C16.4484197,54.5513288 16.4117107,54.3592466 16.3795134,54.1665493 C16.3772575,54.1524045 16.3741813,54.1384647 16.3719255,54.1243199 C16.3387028,53.9205528 16.3110172,53.7161708 16.2884586,53.5117887 C16.2876383,53.5033838 16.2862027,53.4951839 16.2851773,53.486779 C16.2636441,53.2881369 16.2478531,53.0892897 16.2363687,52.8904426 C16.2353433,52.8738378 16.2334976,52.857643 16.2326773,52.8410383 C16.2211929,52.6278413 16.2152456,52.4146443 16.2152456,52.2018574 L16.2152456,49.7269277 C16.2296011,49.7209828 16.2431363,49.7133979 16.2572867,49.707453 C16.3138883,49.6832633 16.3694645,49.6574337 16.4242204,49.6297591 C16.4461638,49.6186893 16.4681072,49.6080294 16.4896404,49.5965496 C16.5628534,49.5573951 16.6346308,49.5159857 16.7041523,49.4706814 C16.7053828,49.4698614 16.7064082,49.4690414 16.7076386,49.4682214 C16.7759297,49.423532 16.8415548,49.3753577 16.9059494,49.3251335 C16.9252267,49.3101687 16.9438888,49.2943839 16.9627561,49.2788041 C17.0105393,49.2394447 17.0570921,49.1986503 17.1022093,49.1564209 C17.119846,49.1398161 17.1376878,49.1236213 17.1551195,49.1066066 C17.2740649,48.9897582 17.3833716,48.8622501 17.4813991,48.724902 C17.4957546,48.7048123 17.5090846,48.6843126 17.52303,48.6640179 C17.5583034,48.6119486 17.5919363,48.5586494 17.6239285,48.5039152 C17.6364383,48.4823905 17.6493582,48.4612758 17.6614578,48.4393411 C17.7026786,48.3645172 17.7420536,48.2882583 17.7769169,48.2091294 C17.8091142,48.1361504 17.8357744,48.0607115 17.8562822,47.9834276 L18.9918008,43.7225634 C19.0592715,43.469392 19.248969,43.3750934 19.3560198,43.3414739 C19.4636859,43.3078544 19.6738912,43.2764898 19.8752781,43.4462274 C25.3865524,48.099046 29.7914292,49.565595 32.8087463,49.8745256 C32.5806992,50.1430718 32.4422714,50.4901318 32.4422714,50.8699914 L32.4422714,52.5919668 C32.4416561,53.4429097 33.1313345,54.1321098 33.9817942,54.1321098 Z M43.1366947,53.5636529 C43.1453079,53.4705843 43.1492044,53.3775156 43.155972,53.2842419 C43.1645853,53.1630887 43.1752494,53.0425504 43.1809916,52.9205771 C43.192681,52.6809355 43.1992435,52.441294 43.1992435,52.2022674 L43.1992435,49.9436096 L43.2595366,49.9436096 L43.664156,49.9436096 C44.0037657,49.9436096 44.2802113,50.2199457 44.2802113,50.5594208 L44.2802113,52.9478417 C44.2802113,53.2873169 44.0037657,53.5636529 43.664156,53.5636529 L43.1366947,53.5636529 Z M24.0127328,30.4938973 C24.034061,30.3854538 24.0588755,30.2784454 24.0884067,30.1732819 C24.0941489,30.1523722 24.1017368,30.1318725 24.1078892,30.1109628 C24.1341392,30.022814 24.1626451,29.9356903 24.1942271,29.8500015 C24.2050963,29.8206869 24.2165807,29.7917823 24.2280651,29.7626727 C24.2606725,29.6802639 24.2955358,29.5990851 24.3330651,29.5191362 C24.3429089,29.4978165 24.3525476,29.4764968 24.3628015,29.4553821 C25.0520697,28.0497172 26.4978717,27.078851 28.1667989,27.078851 C29.8355211,27.078851 31.2809129,28.0493072 31.9703862,29.4547671 C31.9810503,29.4762918 31.9906889,29.4982265 32.0009429,29.5199562 C32.0382671,29.5992901 32.0727203,29.6800589 32.1051226,29.7618527 C32.116607,29.7911673 32.1285016,29.8204819 32.1393707,29.8502065 C32.1709528,29.9354853 32.1992536,30.022199 32.2252985,30.1099378 C32.2316559,30.1310525 32.2390388,30.1517572 32.244986,30.1730769 C32.2743122,30.2782404 32.2993318,30.3852488 32.3204549,30.4934873 C32.3223006,30.5027122 32.3233259,30.511937 32.3251717,30.5211619 C32.127066,30.4723726 31.9281401,30.4282982 31.7285989,30.3866838 C31.6771242,30.376024 31.6254445,30.3661841 31.5737648,30.3559343 C31.3358739,30.3085799 31.0973679,30.2651206 30.8576313,30.2278111 C30.8389692,30.2249411 30.8205122,30.2212512 30.8016449,30.2183812 C30.5457072,30.1794318 30.288539,30.1478622 30.0307556,30.1201876 C29.9803063,30.1148577 29.9300622,30.1091178 29.8796129,30.1041979 C29.6253158,30.0791882 29.3704035,30.0597135 29.1146708,30.0457737 C29.0685282,30.0433137 29.0223856,30.0416737 28.976243,30.0396238 C28.7071803,30.027324 28.4375023,30.0191241 28.1667989,30.0191241 C27.8960956,30.0191241 27.6266227,30.027324 27.3573549,30.0396238 C27.3112122,30.0416737 27.2648646,30.0433137 27.2187219,30.0457737 C26.9629893,30.0595085 26.7078719,30.0791882 26.4537799,30.1041979 C26.4031255,30.1091178 26.3528813,30.1148577 26.3024321,30.1201876 C26.0446487,30.1476572 25.7876855,30.1792268 25.5317478,30.2183812 C25.5128806,30.2212512 25.4942185,30.2249411 25.4753513,30.2278111 C25.2360249,30.2651206 24.9977239,30.3083749 24.7602433,30.3557293 C24.7081534,30.3659791 24.6560635,30.375819 24.6041787,30.3866838 C24.4048426,30.4282982 24.2061217,30.4723726 24.0082211,30.5211619 C24.0098617,30.512347 24.0108871,30.5029172 24.0127328,30.4938973 Z M21.4238244,34.787561 C21.4537658,34.7715712 21.4835021,34.7547615 21.5136487,34.7389767 C21.8911978,34.5403345 22.2790009,34.3580921 22.6754172,34.1930695 C22.7205345,34.1744147 22.7660618,34.156785 22.8113841,34.1385403 C22.9502222,34.0823711 23.0904957,34.0286618 23.2315896,33.9767976 C23.3259256,33.9421531 23.4204667,33.9089435 23.5152129,33.876349 C23.628211,33.8376046 23.7416193,33.7998851 23.8556429,33.7638056 C23.9565414,33.7320311 24.057645,33.7012815 24.1591587,33.6715569 C24.2721569,33.6385524 24.3855652,33.6071878 24.4997938,33.5770533 C24.6015126,33.5499937 24.7034366,33.523754 24.8057706,33.4991544 C24.9232805,33.4708648 25.0418158,33.4446252 25.160351,33.4190005 C25.2600191,33.3976808 25.3596871,33.3763611 25.4595603,33.3570914 C25.5844529,33.3331068 25.710371,33.3119921 25.8364942,33.2912874 C25.9318556,33.2755026 26.027217,33.2593078 26.1229886,33.245573 C26.2575199,33.2263033 26.3930767,33.2105185 26.5288385,33.1951437 C26.6180476,33.1848939 26.7068465,33.173414 26.7962606,33.1648042 C26.9478135,33.1504544 27.1005968,33.1404095 27.2535852,33.1307746 C27.3284388,33.1260597 27.4028823,33.1190898 27.4779409,33.1156049 C27.7061931,33.10474 27.9354706,33.0985901 28.1663888,33.0985901 C28.3971019,33.0985901 28.6263794,33.10474 28.8546315,33.1156049 C28.9298953,33.1190898 29.0047489,33.1260597 29.0800126,33.1307746 C29.2325909,33.1404095 29.384964,33.1502494 29.5361067,33.1648042 C29.625931,33.173414 29.7151401,33.1850989 29.8045542,33.1953487 C29.9399059,33.2107235 30.0750525,33.2265083 30.2091737,33.245778 C30.3053555,33.2595128 30.4009219,33.2759126 30.4968986,33.2916973 C30.6226116,33.3124021 30.7481195,33.3335168 30.872602,33.3572964 C30.9730904,33.3765661 31.0729635,33.3978858 31.1730418,33.4194105 C31.2913719,33.4448302 31.409292,33.4708648 31.5263917,33.4991544 C31.6291359,33.523959 31.73147,33.5504037 31.833599,33.5774633 C31.9472123,33.6075978 32.0602105,33.6387574 32.1727985,33.6715569 C32.2747224,33.7012815 32.3762362,33.7322361 32.4777499,33.7642156 C32.5913633,33.8000901 32.7043614,33.8376046 32.8167443,33.876349 C32.9121058,33.9091485 33.007057,33.9423581 33.1018032,33.9772076 C33.2428971,34.0292768 33.3833757,34.0827811 33.5224188,34.1391553 C33.5673309,34.157195 33.6124482,34.1746197 33.6569501,34.1932745 C34.0537767,34.3585021 34.4415797,34.5407445 34.819539,34.7395917 C34.8492754,34.7551715 34.8783965,34.7715712 34.9079278,34.787356 C35.0623518,34.8699698 35.21493,34.9554536 35.3658676,35.0436023 C35.4124204,35.0708669 35.4591783,35.0983366 35.5053209,35.1260112 C35.6396472,35.20637 35.7721278,35.2893938 35.9033779,35.3740576 C35.9530068,35.4060372 36.003251,35.4371967 36.0524698,35.4699963 C36.1952043,35.5644999 36.3356829,35.6622835 36.4749311,35.7617071 C36.5862886,35.8414509 36.6955953,35.9234498 36.8042868,36.0062686 C36.8647849,36.0521879 36.9256932,36.0974923 36.985371,36.1442316 C37.100625,36.2348403 37.2142384,36.327499 37.3266213,36.4215927 C37.3504104,36.4414774 37.3741994,36.4613621 37.3979885,36.4814518 C40.1591628,38.8235434 41.9853851,42.1686856 42.4023093,45.8243984 C42.4103073,45.8953274 42.4195358,45.9658464 42.4263034,46.0371854 C42.4361472,46.137429 42.44353,46.2380825 42.4511179,46.3387361 C42.4607566,46.4660393 42.4691648,46.5939574 42.4753171,46.7220806 C42.477573,46.7696399 42.4798289,46.8171993 42.4816746,46.8649636 L41.6576699,46.8649636 L34.1029955,46.8649636 C29.3984992,46.8649636 24.4136609,43.2498402 21.8612564,41.0949109 C21.786813,41.0319768 21.7097035,40.9735527 21.6313636,40.9173835 C21.6092151,40.9015987 21.5870667,40.8864289 21.5647131,40.8710541 C21.5019592,40.8280048 21.4381798,40.7872103 21.3733751,40.7486709 C21.3543028,40.7371911 21.3356407,40.7253012 21.3163633,40.7142314 C21.2345371,40.667492 21.1514804,40.6238277 21.0669881,40.5838532 C21.0479158,40.5748334 21.0284334,40.5668385 21.0093611,40.5582286 C20.940865,40.5272741 20.8715485,40.4983695 20.8016168,40.4719248 C20.7761871,40.46229 20.7509624,40.4526551 20.7253277,40.4436352 C20.6420659,40.4141157 20.5581888,40.3870561 20.4730813,40.3638914 C20.4675442,40.3624564 20.4622122,40.3604064 20.4566751,40.3589715 C20.3668508,40.3349868 20.275796,40.3155121 20.1843311,40.2984973 C20.1580811,40.2935774 20.131626,40.2894774 20.105376,40.2851725 C20.0333935,40.2734877 19.9612059,40.2638528 19.8886082,40.2564729 C19.8654343,40.2542179 19.8422605,40.251143 19.8190866,40.249298 C19.7265963,40.2417131 19.6339009,40.2376132 19.5410005,40.2369982 C19.5358735,40.2369982 19.5305415,40.2363832 19.5254145,40.2363832 C19.5055219,40.2363832 19.4858344,40.2384332 19.4659418,40.2386382 C19.4066742,40.2396632 19.3472015,40.2415081 19.2877288,40.2454031 C19.256967,40.247453 19.2262053,40.250323 19.1952384,40.253193 C19.1398673,40.2583179 19.0847012,40.2644678 19.0293301,40.2722577 C18.9983633,40.2765626 18.9673965,40.2808676 18.9364296,40.2859925 C18.8779823,40.2956274 18.8197401,40.3071072 18.7617029,40.319612 C18.7352478,40.3253519 18.7087927,40.3302719 18.6823376,40.3364218 C18.5982555,40.3565115 18.5143785,40.3788562 18.4309116,40.4050958 C17.2389965,40.7796254 16.3354215,41.723842 16.0136537,42.9310697 L14.9650883,46.8651686 L14.673467,46.8651686 L13.8494623,46.8651686 C13.8513081,46.8176092 13.8533588,46.7700499 13.8558198,46.7224906 C13.8619721,46.5939574 13.8705854,46.4660393 13.8802241,46.3385311 C13.8880171,46.2380825 13.8951948,46.137634 13.9050386,46.0375954 C13.9120112,45.9658464 13.9212398,45.8947124 13.9292378,45.8233734 C14.3463671,42.1678656 16.1725894,38.8233384 18.9335585,36.4814518 C18.9571425,36.4615671 18.9809316,36.4416824 19.0047207,36.4217977 C19.1173087,36.327704 19.2311272,36.2348403 19.3465862,36.1440266 C19.4054437,36.0979023 19.4655316,36.0532129 19.5250044,36.0081136 C19.6355416,35.9240648 19.7464889,35.840836 19.8596921,35.7598621 C19.9977098,35.6612585 20.1371631,35.5642949 20.2786671,35.4706112 C20.3285011,35.4376067 20.3793606,35.4060372 20.4296047,35.3736476 C20.5604447,35.2893938 20.692105,35.20678 20.825816,35.1268311 C20.8725739,35.0987466 20.9195368,35.0710719 20.9667048,35.0436023 C21.1180526,34.9550436 21.2700156,34.8699698 21.4238244,34.787561 Z M4.36787214,68.2514883 C3.56273472,67.9966769 3.03465809,67.2279379 3.08346673,66.3821199 C3.30351575,62.5736843 4.23252046,54.8543145 7.98401783,45.9430917 C11.706189,37.101773 16.6635468,32.8802682 20.8641657,30.8889267 C20.8637555,30.8952816 20.8639606,30.9016365 20.8635504,30.9079914 C20.8561676,31.0416495 20.851861,31.1763325 20.851861,31.3118356 C20.851861,31.4167941 20.8541168,31.5217526 20.8588336,31.6271211 C20.8014117,31.6537707 20.7454253,31.6828803 20.6882085,31.7099399 C20.6406303,31.7326946 20.5932572,31.7560643 20.5458841,31.7790239 C20.3449074,31.8772175 20.1459815,31.9791011 19.9497215,32.0846746 C19.9136277,32.1041493 19.8771238,32.122804 19.8412351,32.1424838 C19.6123677,32.267737 19.3863714,32.3970901 19.1644767,32.5319782 C19.1320743,32.5516579 19.1004923,32.5727726 19.0680899,32.5926573 C18.8925429,32.7008958 18.7192517,32.8120042 18.5480113,32.9261876 C18.4672105,32.9798968 18.3870249,33.034836 18.3070443,33.0899802 C18.1913802,33.1699291 18.0771515,33.2515179 17.9637432,33.3343367 C17.8657158,33.4054707 17.7670732,33.4761947 17.6704813,33.5493787 C17.6596121,33.5575786 17.6491531,33.5663934 17.6384891,33.5745933 C13.9669722,36.3703434 11.4381517,40.5883632 10.8780828,45.3998495 C10.873161,45.4414639 10.8668035,45.4826683 10.8622918,45.5244877 C10.8491668,45.644821 10.839118,45.7657693 10.8284539,45.8867175 C10.8143035,46.0439503 10.8022039,46.201388 10.7923601,46.3594408 C10.786823,46.4512795 10.7808757,46.5429132 10.7767742,46.6349569 C10.7650847,46.8887432 10.7570866,47.1433496 10.7566765,47.3989809 C10.7162761,47.4235806 10.6773112,47.4502302 10.6379361,47.4762648 C10.6215299,47.4871297 10.6049185,47.4971745 10.5887173,47.5082444 C10.5025845,47.5670785 10.4193227,47.6296027 10.3387269,47.6952017 C10.3215003,47.7091415 10.304889,47.7239013 10.2878675,47.7382511 C10.2177307,47.7974953 10.1496447,47.8591994 10.0842247,47.9233635 C10.0717149,47.9356633 10.0585899,47.9473481 10.0462852,47.9598529 C9.97307229,48.0336519 9.90334566,48.1107308 9.83669521,48.1902697 C9.8217245,48.2083094 9.80716394,48.2265541 9.7923983,48.2450039 C9.73395099,48.3175728 9.67775953,48.3919868 9.62464425,48.4690657 C9.61623604,48.4813655 9.60700752,48.4932553 9.59859931,48.5055552 C9.54035707,48.5920639 9.48662655,48.6816476 9.43576713,48.7732813 C9.42387259,48.794806 9.41259329,48.8165357 9.40090382,48.8382654 C9.3557866,48.9235442 9.31333539,49.0102579 9.27498575,49.0992267 C9.27047402,49.1096815 9.26514199,49.1199314 9.26083534,49.1305912 C9.21981968,49.2279648 9.18393098,49.3277984 9.15132353,49.429272 C9.14353055,49.4536666 9.13614774,49.4782663 9.12876492,49.5028659 C9.0996438,49.6004445 9.07339377,49.6990481 9.05227071,49.7999067 C9.05083516,49.8068766 9.04878438,49.8136415 9.04734883,49.8204064 C9.02561053,49.9265949 9.01022966,50.0346283 8.99792496,50.1438918 C8.99484879,50.1705414 8.99238785,50.197191 8.98992691,50.2240456 C8.97987807,50.334949 8.97290541,50.4464674 8.97290541,50.5598308 L8.97290541,52.9482517 C8.97290541,54.9855126 10.6311686,56.643119 12.6692367,56.643119 L13.8043451,56.643119 C13.8053705,56.6463989 13.806601,56.6494739 13.8076264,56.6527538 C13.8375678,56.7488975 13.872021,56.8431961 13.9038081,56.9385198 C15.1787799,60.8008696 17.9493878,63.9578245 21.6221351,65.7279743 C21.6416175,65.7374041 21.6608949,65.747039 21.6805824,65.7564689 C21.7632289,65.7958283 21.8438247,65.8386727 21.9272916,65.8765972 L21.9272916,66.7429148 C21.9272916,67.0200708 21.7300063,67.2609424 21.4574572,67.3156766 L20.312505,67.5460933 C20.2684132,67.5551132 20.2247315,67.565773 20.18146,67.5784829 L11.2607589,70.2034704 C11.2578878,70.2042904 11.2548117,70.2053154 11.2519406,70.2063403 C11.1329952,70.2413948 11.0138447,70.2787043 10.8951043,70.3180637 L4.36787214,68.2514883 Z M13.1524012,52.9209871 C13.1579383,53.0398854 13.1683973,53.1575537 13.1768055,53.2756321 C13.1837782,53.3715707 13.1878797,53.4675093 13.196493,53.5634479 L12.6690316,53.5634479 C12.329422,53.5634479 12.0529764,53.2871119 12.0529764,52.9476367 L12.0529764,50.5592158 C12.0529764,50.2197407 12.329422,49.9434046 12.6690316,49.9434046 L13.0738562,49.9434046 L13.1341492,49.9434046 L13.1341492,52.2020624 C13.1341492,52.441499 13.1407117,52.6811405 13.1524012,52.9209871 Z M50.2664469,96.920944 L50.2658317,96.920944 L46.0244022,96.920944 L46.0244022,82.3993613 C46.0244022,81.6273423 45.7729762,80.8633182 45.316677,80.248327 C43.3606402,77.6114496 40.2354519,76.0372771 36.9568651,76.0372771 C33.8577218,76.0372771 30.9425337,77.4046076 28.9586062,79.7883135 C28.6864673,80.1154889 28.3456272,80.1644832 28.1665938,80.1644832 C27.9875605,80.1644832 27.6467204,80.1156939 27.3743764,79.7883135 C25.390654,77.4044026 22.4752608,76.0372771 19.3763226,76.0372771 C16.0977358,76.0372771 12.9725475,77.6114496 11.0165107,80.248327 C10.5600064,80.8635232 10.3087855,81.6275473 10.3087855,82.3995663 L10.3087855,85.1584169 C10.3087855,86.0087447 10.9984638,86.6979449 11.8489235,86.6979449 C12.6993832,86.6979449 13.3890616,86.0085397 13.3890616,85.1584169 L13.3890616,82.3995663 C13.3890616,82.2835379 13.4251553,82.1709945 13.4907804,82.0824358 C14.8890043,80.1974877 17.0343284,79.1163331 19.3763226,79.1163331 C21.5575354,79.1163331 23.6095489,80.0789994 25.0063372,81.7575154 C25.7924023,82.701937 26.9441221,83.2437442 28.1667989,83.2435392 C29.3892707,83.2435392 30.5409904,82.701937 31.3268505,81.7575154 C32.7236388,80.0789994 34.7756523,79.1163331 36.9570702,79.1163331 C39.2990644,79.1163331 41.4443885,80.1972827 42.8426124,82.0824358 C42.9080324,82.1707895 42.9441261,82.2833329 42.9441261,82.3993613 L42.9441261,96.920944 L13.3890616,96.920944 L13.3890616,92.3218346 C13.3890616,91.4715068 12.6993832,90.7823066 11.8489235,90.7823066 C10.9984638,90.7823066 10.3087855,91.4717118 10.3087855,92.3218346 L10.3087855,96.920944 L6.06715095,96.920944 L6.06715095,81.2601925 C6.06715095,77.6807386 8.37592247,74.4616696 11.7307984,73.2870364 C11.7545875,73.2786315 11.7781715,73.2694066 11.8019606,73.2612067 C11.8442067,73.2468569 11.8872732,73.2343521 11.9299294,73.2206173 C11.99699,73.1990926 12.0640507,73.1765429 12.1311113,73.1568632 L12.1309062,73.1568632 L20.9861873,70.5503254 L22.0648991,70.3336435 C22.1698992,70.3125288 22.2730536,70.2869042 22.3743623,70.2569746 C22.4088154,70.2469298 22.441833,70.233605 22.475671,70.2225351 C22.5415011,70.2010104 22.6077414,70.1801007 22.6719309,70.1550911 C22.7117161,70.1395113 22.7498607,70.1208566 22.7888255,70.1040468 C22.8452221,70.0796522 22.9020288,70.0562825 22.9567847,70.0294279 C22.9973902,70.0093382 23.03615,69.9863785 23.0759352,69.9650588 C23.1267946,69.9375892 23.1782692,69.9109396 23.2276931,69.881215 C23.2678884,69.8570253 23.306033,69.8301707 23.3449979,69.8045461 C23.3915507,69.7740015 23.4385136,69.7442769 23.4836308,69.7116824 C23.5223906,69.6835978 23.5588946,69.6532582 23.5964239,69.6239437 C23.6390802,69.5903241 23.6823517,69.5575246 23.7235724,69.5222651 C23.7602815,69.4909006 23.7947346,69.457281 23.8300081,69.4244815 C23.869178,69.387992 23.9087581,69.3521175 23.9462875,69.3141931 C23.9805355,69.2795486 24.0125278,69.2430591 24.0453403,69.2071846 C24.0810239,69.1680302 24.1169126,69.1294907 24.1509556,69.0889013 C24.1823326,69.0511818 24.2118639,69.0120274 24.2418053,68.9732829 C24.2737975,68.9316685 24.3061999,68.8904641 24.3363464,68.8474147 C24.3646472,68.8072353 24.3911023,68.7656209 24.4179676,68.7240065 C24.4464734,68.6801371 24.4749793,68.6362678 24.5014344,68.5911684 C24.526454,68.548529 24.5496278,68.5048646 24.5730068,68.4609953 C24.5978212,68.4148709 24.6224306,68.3687466 24.6451943,68.3213923 C24.6667275,68.2767029 24.6864151,68.2309885 24.7061026,68.1852742 C24.7270206,68.1370999 24.7475284,68.0889256 24.7663956,68.0397263 C24.7842374,67.9929869 24.8002335,67.9456326 24.8160245,67.8982783 C24.832841,67.848259 24.8492472,67.7980347 24.8638078,67.7469905 C24.8777531,67.6988161 24.8898527,67.6502318 24.9017473,67.6012375 C24.9144621,67.5493733 24.9263567,67.497509 24.9368157,67.4448248 C24.9466594,67.3952155 24.9546575,67.3454012 24.9624505,67.2953819 C24.9706536,67.2420827 24.9780364,67.1885784 24.9839837,67.1344592 C24.9895208,67.0838249 24.9936224,67.0331906 24.9969036,66.9819414 C24.9987493,66.9526268 25.003056,66.9239272 25.0042864,66.8944076 C25.0307415,66.9001475 25.0578119,66.9038375 25.084472,66.9093724 C25.1960346,66.9327421 25.3088277,66.9518068 25.4212106,66.9727165 C25.5538963,66.9973162 25.6861718,67.0231458 25.8196778,67.0440555 C25.951133,67.0647602 26.0840237,67.080545 26.2167094,67.0977647 C26.3321684,67.1127295 26.4472174,67.1295393 26.5632917,67.1418391 C26.713409,67.1578289 26.8649619,67.1684887 27.0163097,67.1799685 C27.1170031,67.1875534 27.2174915,67.1973933 27.31839,67.2029282 C27.4763003,67.2117431 27.635441,67.215023 27.7943767,67.218918 C27.8909686,67.221173 27.9873554,67.2256829 28.0839473,67.2262979 C28.1116329,67.2265029 28.1389083,67.2283479 28.1667989,67.2283479 C28.3033811,67.2283479 28.4385277,67.221583 28.5742895,67.218098 C28.6661646,67.215638 28.7580397,67.215228 28.8499147,67.2111281 C29.0197196,67.2035432 29.1880889,67.1902184 29.3564582,67.1770986 C29.4417707,67.1703337 29.5270833,67.1658238 29.6121908,67.1576239 C29.7848667,67.1410191 29.955697,67.1190844 30.1265272,67.0967397 C30.207328,67.0860799 30.288334,67.077675 30.3687247,67.0657852 C30.5493986,67.0391356 30.7280218,67.006951 30.90644,66.9739465 C30.9646822,66.9630816 31.0235397,66.9554968 31.0815768,66.9440169 C31.0823971,66.9563167 31.084653,66.9684116 31.0856784,66.9807114 C31.0893698,67.0268357 31.0955222,67.0723451 31.1010593,67.1182644 C31.1078269,67.1760736 31.1145944,67.2336778 31.124028,67.290667 C31.1316159,67.3365863 31.1414597,67.3816857 31.1508933,67.42699 C31.1623777,67.4825442 31.1738621,67.5380984 31.1880125,67.5926277 C31.1994969,67.637727 31.2128269,67.6822114 31.226157,67.7266957 C31.2419481,67.7802 31.2583543,67.8332942 31.2766063,67.8859785 C31.2919872,67.9300528 31.3085985,67.9733072 31.32562,68.0165616 C31.3457177,68.0680159 31.3664306,68.1190601 31.3887841,68.1694894 C31.4076513,68.2119238 31.4275439,68.2537432 31.4480518,68.2953576 C31.472251,68.3445569 31.4970655,68.3931412 31.5233155,68.4411105 C31.545669,68.481905 31.5686378,68.5220844 31.5924269,68.5618538 C31.6205226,68.6087982 31.6494386,68.6549225 31.6793801,68.7004318 C31.7048098,68.7391763 31.7308547,68.7773057 31.75772,68.8150252 C31.7895071,68.8593046 31.8223197,68.902764 31.8559525,68.9456083 C31.8844584,68.9820978 31.9131693,69.0181773 31.9431108,69.0534368 C31.9783842,69.0952562 32.0150933,69.1356406 32.0522124,69.1758201 C32.0835894,69.2096446 32.1147613,69.2434691 32.1473688,69.2760636 C32.1861286,69.3150131 32.2263239,69.3523225 32.2669294,69.389427 C32.3007673,69.4205866 32.3344002,69.4517461 32.3692635,69.4814707 C32.4115096,69.5175502 32.4553964,69.5515797 32.4992831,69.5856092 C32.5351718,69.6134888 32.5708555,69.6419834 32.6077696,69.668428 C32.6537071,69.7014326 32.7012853,69.7319771 32.7488634,69.7629317 C32.7865978,69.7873263 32.8235119,69.812746 32.8620666,69.8357056 C32.9119007,69.8654302 32.9633753,69.8924898 33.0146449,69.9199594 C33.0534047,69.9406641 33.0913442,69.9625988 33.1309243,69.9820735 C33.1856802,70.0089282 33.2422818,70.0325028 33.2986784,70.0564875 C33.337028,70.0728872 33.3745573,70.090927 33.4135222,70.1060968 C33.4773016,70.1309014 33.5429266,70.1518111 33.6083466,70.1729258 C33.6419794,70.1837907 33.6743818,70.1967055 33.7084248,70.2065453 C33.8087081,70.2358599 33.9108371,70.2614846 34.0150169,70.2823943 L35.3470004,70.5503254 L44.2026917,73.1566582 C44.3138441,73.1892528 44.4237661,73.2243073 44.5328677,73.2614117 C44.5453775,73.2657167 44.5576822,73.2706366 44.570192,73.2749415 C47.9427047,74.4397349 50.2664469,77.6686438 50.2664469,81.2597825 L50.2664469,96.920944 Z M86.3095737,71.1927863 L88.4097806,74.8997483 L82.3080859,84.3466285 L86.3095737,71.1927863 Z M78.4829654,75.8658995 L76.7828663,75.8658995 L76.1815767,74.8245144 L77.6331209,73.4998233 L79.0844601,74.8243094 L78.4829654,75.8658995 Z M78.8761005,85.0448485 L78.1956507,87.2815716 L77.6329158,89.1312602 L76.3903464,85.0466935 L77.2350639,78.9451606 L78.0231798,78.9451606 L78.8761005,85.0448485 Z M73.5254025,69.9902734 C74.4640459,70.2368849 75.4217616,70.3951426 76.3848093,70.4695566 L73.1900995,73.38523 C73.089201,73.4772736 73.00799,73.5828471 72.9368278,73.6937506 L71.6612408,69.5007404 L73.5254025,69.9902734 Z M73.4720822,66.7927291 C73.8034887,66.2509218 74.0042604,65.6242458 74.034817,64.9616952 C74.1822683,64.9969547 74.3303349,65.0297542 74.4790166,65.0607088 C74.5237237,65.0699337 74.5688409,65.0779286 74.613548,65.0869484 C74.8013997,65.1242579 74.9898667,65.1580824 75.179154,65.188217 C75.2252966,65.1955969 75.2712341,65.2040018 75.3175818,65.2109717 C75.5212246,65.2415162 75.7258927,65.2665259 75.9307659,65.2890755 C75.9982367,65.2964554 76.0652973,65.3042453 76.1329731,65.3108052 C76.3314889,65.32987 76.53062,65.3448347 76.729751,65.3563146 C76.8015284,65.3604145 76.8735109,65.3641045 76.9456984,65.3673844 C77.1483158,65.3764043 77.3511382,65.3817342 77.5539607,65.3827592 C77.5804158,65.3829642 77.6064607,65.3848092 77.6331209,65.3848092 C77.6724959,65.3848092 77.7112557,65.3821442 77.7506308,65.3817342 C77.9614513,65.3802992 78.1722718,65.3757893 78.3828872,65.3657444 C78.4329263,65.3632845 78.4827603,65.3595945 78.5327994,65.3567246 C78.7356219,65.3450397 78.9382392,65.32987 79.1404464,65.3103952 C79.1726437,65.3073203 79.2050461,65.3050653 79.2372434,65.3017854 C79.4652905,65.2784157 79.6925172,65.2484861 79.9191287,65.2148666 C79.9544022,65.2095367 79.9898808,65.2048217 80.0251542,65.1992868 C80.2527911,65.1640273 80.4794027,65.1230279 80.7047837,65.0777236 C80.7332896,65.0719836 80.7617955,65.0662437 80.7900963,65.0602988 C80.8473131,65.048409 80.9047351,65.0375441 80.9617468,65.0250393 C81.0128113,65.6888198 81.2347061,66.3126259 81.5868255,66.8472583 L80.9576453,67.0124859 C78.7823797,67.5838128 76.4832469,67.5838128 74.3081864,67.0124859 L73.4720822,66.7927291 Z M78.8812275,70.4695566 C79.8442752,70.3953476 80.8017858,70.2368849 81.7404291,69.9902734 L83.6045909,69.5007404 L82.329209,73.6935456 C82.2582519,73.5828471 82.1768358,73.4772736 82.0759372,73.38523 L78.8812275,70.4695566 Z M93.0578803,51.110863 C93.0691596,50.9630601 93.0824897,50.8156672 93.0896675,50.6666343 C93.1019722,50.4159229 93.1087397,50.1652115 93.1087397,49.91491 L93.1087397,47.5316141 L93.5919042,47.5316141 C93.5984667,47.5316141 93.6058495,47.532229 93.612207,47.532229 C93.6565039,47.532639 93.7005957,47.537354 93.7438672,47.5465788 C93.7469434,47.5471938 93.7502247,47.5480138 93.7530958,47.5488338 C93.7828321,47.5555987 93.8090821,47.5666686 93.8363576,47.5763034 C93.8529689,47.5824533 93.8701955,47.5855283 93.8866017,47.5929082 C93.8868068,47.5929082 93.8868068,47.5931132 93.8870119,47.5931132 C94.1337211,47.7044266 94.2930669,47.9498081 94.2930669,48.2179443 L94.2930669,50.684879 C94.2930669,51.0635086 93.9848342,51.3714142 93.6062597,51.3714142 L93.0396283,51.3714142 C93.0474213,51.2847005 93.0511127,51.1977817 93.0578803,51.110863 Z M61.6599821,51.3714142 C61.2812025,51.3716192 60.9731749,51.0635086 60.9731749,50.685084 L60.9731749,48.2181493 C60.9731749,47.9502181 61.1323157,47.7050416 61.3796401,47.5931132 C61.4198354,47.5750734 61.4610562,47.5623636 61.502482,47.5523188 C61.5096597,47.5504738 61.5154019,47.5484238 61.5231949,47.5465788 C61.5666715,47.537354 61.6105583,47.532639 61.6548552,47.532229 C61.6612126,47.532229 61.6677751,47.5318191 61.6741325,47.5316141 L62.157297,47.5316141 L62.157297,49.91491 C62.157297,50.1652115 62.1640646,50.4159229 62.1763693,50.6666343 C62.183547,50.8152572 62.196672,50.9620351 62.2079514,51.109428 C62.2147189,51.1967567 62.2184103,51.2840855 62.2266135,51.3714143 L61.6599821,51.3714142 Z M64.1385585,39.690066 C64.0799061,39.7066708 64.0226892,39.7267605 63.967113,39.7499251 C63.9427087,39.760175 63.9197399,39.7728848 63.8959509,39.7843647 C63.8660094,39.7987145 63.8354528,39.8118343 63.8065367,39.828029 C63.7778258,39.8440188 63.7511656,39.8628785 63.7236851,39.8805083 C63.7015366,39.8948581 63.6783628,39.9079779 63.6568296,39.9233527 C63.6283237,39.9438524 63.6020736,39.967017 63.5752084,39.9893617 C63.5567513,40.0047365 63.5372689,40.0188813 63.5196322,40.0350761 C63.492972,40.0592657 63.4687728,40.0859154 63.4439583,40.11195 C63.4279622,40.1287597 63.4111457,40.1443395 63.39597,40.1617643 C63.3719758,40.1892339 63.3506476,40.2187535 63.3287043,40.248068 C63.314964,40.2663128 63.3004035,40.2835325 63.2874835,40.3023923 C63.2667706,40.3327318 63.2485187,40.3647114 63.2300616,40.3966909 C63.2185772,40.4163706 63.2060674,40.4352304 63.1954034,40.4555251 C63.1781768,40.4881196 63.1638213,40.5223541 63.1488506,40.5563836 C63.1410576,40.5744234 63.1314189,40.5914381 63.1242412,40.6098879 C63.1213701,40.6170628 63.1189092,40.6240327 63.1160381,40.6312076 C63.1152178,40.6334625 63.1139873,40.6357175 63.1129619,40.6379725 C63.1115263,40.6420724 63.1100908,40.6463774 63.1086553,40.6504773 C63.1084502,40.6508873 63.1082451,40.6517073 63.10804,40.6521173 C63.1070146,40.6549872 63.1059892,40.6578572 63.1049638,40.6607271 C63.0251884,40.877614 62.9513602,41.0959359 62.8816336,41.3154878 C62.880198,41.3202027 62.8783523,41.3247127 62.8769168,41.3292226 C62.8758914,41.3322976 62.8750711,41.3353725 62.8742508,41.3382425 C62.5992408,42.2080451 62.4015453,43.0979374 62.2848557,44.0023844 L62.2848557,42.6496088 C62.2848557,35.4972609 68.1060033,29.6782139 75.2613904,29.6782139 L80.0040312,29.6782139 C87.1592131,29.6782139 92.9805658,35.4970559 92.9805658,42.6496088 L92.9805658,44.0062794 C92.9699017,43.9238706 92.9567767,43.8416667 92.9448822,43.7594629 C92.9438568,43.752698 92.9432415,43.7459331 92.9422162,43.7391682 L92.9217083,43.5977202 C92.9212982,43.5950553 92.9206829,43.5919803 92.9202728,43.5893153 C92.8870501,43.3773484 92.8491106,43.1664064 92.8072746,42.9564894 C92.8068645,42.9548494 92.8066594,42.9532094 92.8064543,42.9517744 L92.7722062,42.7875718 C92.7713859,42.7840868 92.7705656,42.7808069 92.7697453,42.7773219 C92.7289347,42.5848297 92.685048,42.3933624 92.6370596,42.2027151 C92.6358292,42.1977952 92.6350089,42.1930803 92.6337784,42.1881603 L92.619628,42.1301462 C92.6179874,42.1237913 92.6165518,42.1174363 92.6149112,42.1110814 C92.6147061,42.1102615 92.614296,42.1096465 92.6140909,42.1088265 C92.6122452,42.1016516 92.6101944,42.0942717 92.6081436,42.0868918 C92.5991202,42.0538873 92.5843545,42.0239577 92.5732803,41.9919781 C92.5570791,41.9454438 92.5427236,41.8982945 92.5224209,41.8540151 C92.50704,41.8208056 92.4873525,41.790466 92.4697157,41.7586915 C92.4465419,41.7164621 92.4250087,41.6732077 92.3981434,41.6336433 C92.3774305,41.6033037 92.3528211,41.5764491 92.3302625,41.5477495 C92.3013465,41.511055 92.273866,41.4729256 92.2418738,41.439101 C92.2152136,41.4110164 92.184862,41.3870318 92.1563561,41.3612021 C92.1237487,41.3314776 92.0925768,41.300318 92.0575084,41.2734634 C92.0236704,41.2476338 91.9863462,41.2267241 91.9504575,41.2037644 C91.9166196,41.1822397 91.8844223,41.15846 91.8491488,41.1396003 C91.8081331,41.1176656 91.7642464,41.1014709 91.7211799,41.0832261 C91.6875471,41.0690813 91.6551447,41.0520666 91.6204865,41.0403817 C91.5741388,41.024597 91.5257403,41.0151671 91.477752,41.0038922 C91.4432988,40.9956924 91.4100762,40.9846225 91.3750078,40.9788826 C91.328455,40.9712977 91.2804667,40.9702727 91.2328885,40.9669928 C91.1965896,40.9643278 91.1613162,40.9579729 91.1246072,40.9579729 C91.118865,40.9579729 91.1131228,40.9579729 91.1073806,40.9579729 L91.1069704,40.9579729 L91.0708767,40.9583829 C90.8003784,40.9614579 90.5354172,41.0354618 90.3026533,41.1734248 C88.6497222,42.1531058 86.459691,42.6498137 83.7938782,42.6498137 C81.0843837,42.6498137 78.3420766,41.790671 75.6902091,40.9598179 C72.3316417,39.9075679 68.8705352,38.8243634 65.3487255,39.4192649 C65.3140673,39.4252098 65.2794091,39.4299247 65.2445458,39.4360746 C65.2326512,39.4383296 65.2205516,39.4409946 65.2086571,39.4430445 C64.852231,39.5076186 64.4958049,39.5890024 64.1385585,39.690066 Z M65.5226319,52.5503524 C65.4793604,52.3508903 65.4410108,52.1508131 65.407583,51.950121 C65.4053272,51.9365912 65.4024561,51.9230614 65.4002002,51.9095316 C65.365542,51.6969496 65.3366259,51.4837526 65.3130419,51.2703507 C65.3122216,51.2627658 65.3109911,51.2553859 65.3101708,51.247801 C65.2876122,51.040344 65.2712059,50.8326819 65.2591063,50.6252249 C65.258286,50.6094401 65.2564403,50.5938603 65.2554149,50.5780756 C65.2433153,50.3568837 65.2371629,50.1356919 65.2371629,49.91491 L65.2371629,46.0158657 C65.2371629,46.0076658 65.237368,45.9994659 65.237368,45.991881 C65.237368,45.991471 65.237368,45.991061 65.237368,45.9906511 C65.237368,45.8686778 65.2404442,45.7469095 65.2441356,45.6253463 C65.2459813,45.5683571 65.2480321,45.5105479 65.2506981,45.4510988 C65.2525438,45.4088694 65.2552098,45.36664 65.2574657,45.3244106 C65.258286,45.3141607 65.2586962,45.3039109 65.2595165,45.293661 L65.2668993,45.1899325 C65.2753075,45.0599643 65.2839208,44.9302012 65.2964306,44.8000281 C65.2964306,44.7998231 65.2964306,44.7994131 65.2964306,44.7992081 C65.3019677,44.7411939 65.3089404,44.6835897 65.3157079,44.6261905 L65.323706,44.5583365 C65.3370361,44.4431281 65.3509814,44.3279198 65.3675927,44.2127114 C65.3796924,44.1280476 65.3936377,44.0439988 65.407583,43.959745 C65.4256299,43.8510966 65.4447022,43.7430631 65.4658253,43.6340047 C65.4822315,43.5485209 65.4994581,43.4634471 65.5177101,43.3789883 C65.5404738,43.2736198 65.5650832,43.1686613 65.5903078,43.0645228 L65.5962551,43.0399232 C65.6147121,42.9640743 65.6329641,42.8882253 65.6534719,42.8113514 C65.6813626,42.7061879 65.7123294,42.6018444 65.7424759,42.4987309 L65.7498587,42.4739263 C65.8144584,42.4622414 65.8796733,42.4550665 65.944478,42.4448167 C66.0566558,42.4271869 66.1686286,42.4077122 66.2812166,42.3943874 C66.4227206,42.3775776 66.565045,42.3667128 66.7073693,42.3564629 C66.7440783,42.353798 66.7805822,42.348878 66.8174963,42.3466231 C68.924881,42.2203449 71.1282423,42.7826519 73.419377,43.4794369 C73.8658325,43.615145 74.3151591,43.755568 74.768177,43.8974259 C76.7434912,44.5163121 78.7649481,45.1495481 80.8692565,45.4849233 C81.8257417,45.6374411 82.7992484,45.7282548 83.7932629,45.7282548 C84.2823747,45.7282548 84.7569259,45.7100101 85.2224536,45.6806955 C85.5634989,45.6591708 85.9000323,45.6317012 86.2281576,45.5943917 C86.2525619,45.5917267 86.2779917,45.5900868 86.302396,45.5872168 C86.4695348,45.5675371 86.6317517,45.5423225 86.7954042,45.5185428 C86.8924062,45.504398 86.9918692,45.4933282 87.0876408,45.4777484 C87.1864885,45.4617586 87.2816449,45.4412589 87.3792621,45.4238341 C87.5357369,45.3957495 87.6936472,45.3693049 87.8468407,45.3373254 C87.9460986,45.3166207 88.04146,45.291201 88.1392823,45.2688564 C88.2863235,45.2352368 88.4350052,45.2032573 88.5789702,45.1659478 C88.719859,45.1292534 88.856031,45.087024 88.9940487,45.0468445 C89.0906406,45.0187599 89.1896934,44.9933403 89.2846446,44.9634107 C89.3992834,44.9273312 89.5094105,44.8861268 89.6219984,44.8473824 C89.7356118,44.8084329 89.8514811,44.7719435 89.9628386,44.7301241 L89.9655046,44.7528787 C89.9837566,44.9349161 89.9970867,45.1177735 90.0073406,45.3008359 C90.0073406,45.3010409 90.0073406,45.3012459 90.0073406,45.3012459 L90.013698,45.433059 C90.013698,45.434289 90.013698,45.435519 90.0139031,45.436954 C90.0221062,45.6210413 90.0280535,45.8055387 90.0280535,45.9902411 C90.0280535,45.9906511 90.0280535,45.9908561 90.0280535,45.991266 C90.0280535,45.9988509 90.0280535,46.0068458 90.0282586,46.0152507 L90.0282586,49.914295 C90.0282586,50.1350769 90.0221062,50.3562687 90.0100066,50.5774606 C90.0091863,50.5932453 90.0073406,50.6088251 90.0063152,50.6246099 C89.9942156,50.8322719 89.9778093,51.039729 89.9552507,51.247186 C89.9544304,51.2547709 89.9531999,51.2623558 89.9523796,51.2699407 C89.9287956,51.4831376 89.8998795,51.6961296 89.8652213,51.9085066 C89.8629655,51.9224464 89.8600944,51.9361812 89.8578385,51.950121 C89.8244107,52.1506081 89.7862662,52.3504803 89.7429946,52.5497374 C88.7947126,56.9067452 85.5489383,60.4162951 81.3407315,61.7379112 C81.3044327,61.7491861 81.2679287,61.7594359 81.2314248,61.7705058 C81.082743,61.8158101 80.9330359,61.8586545 80.7818932,61.898424 C80.7281626,61.9125687 80.6742271,61.9252786 80.6204965,61.9386034 C80.4851449,61.9722229 80.3491779,62.0039974 80.2119806,62.033107 C80.1494317,62.0464318 80.0866777,62.0589367 80.0239238,62.0712365 C79.893494,62.0968611 79.7624489,62.1202308 79.6307887,62.1415505 C79.563728,62.1524153 79.4966674,62.1632802 79.4294018,62.17312 C79.2993821,62.1921848 79.1683371,62.2081745 79.0368819,62.2231393 C78.9687959,62.2309292 78.900915,62.2393341 78.8326239,62.245894 C78.6944011,62.2592188 78.555358,62.2688537 78.4159048,62.2776685 C78.3549965,62.2813585 78.2944984,62.2868934 78.2335902,62.2897634 C78.0342541,62.2993982 77.8340976,62.3049331 77.6325057,62.3049331 C77.4268121,62.3049331 77.2225542,62.2993982 77.0193216,62.2893534 C76.9491848,62.2858684 76.8796632,62.2791035 76.8097315,62.2745936 C76.6772509,62.2657787 76.5447704,62.2571688 76.4135203,62.244459 C76.3273874,62.2360541 76.2418697,62.2243693 76.1559419,62.2141194 C76.0427387,62.2005896 75.9293304,62.1874698 75.8169475,62.1708651 C75.7207657,62.1567203 75.6251993,62.1395005 75.5294277,62.1231007 C75.4299647,62.106086 75.3302967,62.0892762 75.2314489,62.0698015 C75.1264488,62.0490968 75.022064,62.0255221 74.917474,62.0021525 C74.8301107,61.9824728 74.7427473,61.963203 74.6562043,61.9416783 C74.5438214,61.9137987 74.4320537,61.8834592 74.320286,61.8522996 C74.2433817,61.8309799 74.1664773,61.8096602 74.0901882,61.7869055 C73.9737037,61.752056 73.8578345,61.7149516 73.7423754,61.6766171 C73.670598,61.6528375 73.5988206,61.6288528 73.5274533,61.6038432 C73.4138399,61.5638687 73.3010469,61.5218443 73.1882538,61.4783849 C69.3411899,59.9960511 66.4147226,56.6494739 65.5226319,52.5503524 Z M68.956258,71.1927863 L72.9577458,84.3464235 L66.8560511,74.8995433 L68.956258,71.1927863 Z M95.9868086,96.9106941 L95.9868086,82.1552098 C95.9868086,81.3048819 95.2973354,80.6156817 94.4466706,80.6156817 C93.5960058,80.6156817 92.9065325,81.3050869 92.9065325,82.1552098 L92.9065325,96.9106941 L62.1359689,96.9106941 L62.1359689,92.3216296 C62.1359689,91.4713018 61.4462905,90.7821016 60.5958308,90.7821016 C59.7453711,90.7821016 59.0556928,91.4715068 59.0556928,92.3216296 L59.0556928,96.9106941 L53.3465179,96.9106941 L53.3465179,81.2601925 L53.3465179,80.6462263 C53.3465179,76.5190202 56.1126141,72.822513 60.0734964,71.6568996 L66.1700641,69.8623553 L63.878109,73.9075625 C63.4784114,74.6127524 63.5237337,75.4786601 63.9886462,76.1367007 L76.3390768,95.2582127 C76.3413327,95.2616976 76.3442038,95.2647726 76.3464596,95.2682576 C76.3546628,95.2805574 76.3628659,95.2928572 76.3712741,95.304952 C76.3776315,95.3139719 76.3846042,95.3225818 76.3911667,95.3316016 C76.4106492,95.3582513 76.4305417,95.3849009 76.4516648,95.4103205 C76.4590476,95.4191354 76.4670457,95.4273353 76.4746336,95.4361502 C76.4937059,95.4580848 76.5125731,95.4802245 76.5328758,95.5009292 C76.5336961,95.5017492 76.5345164,95.5023642 76.5353368,95.5031842 C76.5476415,95.515689 76.5609716,95.5271689 76.5736864,95.5392637 C76.5849657,95.5501285 76.596245,95.5609934 76.6079345,95.5712432 C76.638081,95.5980978 76.669458,95.6235175 76.7018603,95.6481171 C76.7092432,95.653857 76.7162158,95.659802 76.7238037,95.6651319 C76.729751,95.6694368 76.735083,95.6741518 76.7410303,95.6784567 C76.7449268,95.6813267 76.7492334,95.6835816 76.7531299,95.6862466 C76.795376,95.7155612 76.839673,95.7426208 76.8854054,95.7680404 C76.8950441,95.7733703 76.9042726,95.7791103 76.9141164,95.7842352 C76.9229348,95.7889501 76.9323684,95.7926401 76.9413918,95.79715 C76.9559524,95.8045299 76.9698977,95.8129348 76.9848684,95.8199047 C77.0016848,95.8276946 77.0189114,95.8330245 77.0357278,95.8401994 C77.0595169,95.8502442 77.0835111,95.8600841 77.1077103,95.868899 C77.1193998,95.8732039 77.1306791,95.8787388 77.1423685,95.8826338 C77.1444193,95.8832488 77.1466752,95.8838638 77.148726,95.8844788 C77.1702592,95.8916537 77.1919975,95.8961636 77.2135307,95.9025185 C77.2348589,95.9084634 77.2559819,95.9150233 77.2775151,95.9201482 C77.3041753,95.9265032 77.3308355,95.9314231 77.3577008,95.936343 C77.3743121,95.939418 77.3909234,95.9420829 77.4075348,95.9445429 C77.4229157,95.9467979 77.4378864,95.9500778 77.4532672,95.9519228 C77.5127399,95.9588927 77.5724177,95.9629926 77.6316854,95.9629926 C77.6318904,95.9629926 77.6323006,95.9629926 77.6325057,95.9629926 C77.6327108,95.9629926 77.6331209,95.9629926 77.633326,95.9629926 C77.6927987,95.9629926 77.7522714,95.9588927 77.8117441,95.9519228 C77.827125,95.9500778 77.8423008,95.9467979 77.8576817,95.9445429 C77.8740879,95.9420829 77.8904942,95.939418 77.9066954,95.936548 C77.9337657,95.9316281 77.960631,95.9267082 77.9874962,95.9203532 C78.0090294,95.9152283 78.0301525,95.9086684 78.0514806,95.9027235 C78.0738342,95.8963686 78.0963928,95.8916537 78.1185413,95.8842738 C78.1193616,95.8840688 78.120387,95.8838638 78.1212073,95.8834538 C78.1333069,95.8793538 78.1452014,95.8736139 78.1573011,95.869104 C78.1817054,95.8602891 78.2054945,95.8504492 78.2292835,95.8404044 C78.2461,95.8332295 78.2635316,95.8278996 78.280143,95.8201097 C78.2955238,95.8129348 78.3096742,95.8045299 78.32485,95.796945 C78.3330532,95.7928451 78.3418715,95.7893601 78.3500747,95.7850552 C78.3601235,95.7797252 78.3697622,95.7737803 78.3796059,95.7684504 C78.4253384,95.7430308 78.4696353,95.7161762 78.5118814,95.6866566 C78.5157779,95.6837866 78.5200846,95.6815317 78.5239811,95.6788667 C78.5303385,95.6743568 78.5358756,95.6694368 78.542233,95.6647219 C78.5485905,95.660007 78.5545377,95.654882 78.5608952,95.6501671 C78.5941178,95.6251575 78.6263151,95.5989178 78.6570769,95.5716532 C78.6687663,95.5611984 78.6800456,95.5503335 78.69153,95.5394687 C78.7261883,95.5066691 78.7592059,95.4724346 78.7903778,95.4367651 C78.7981707,95.4279503 78.8061688,95.4195454 78.8137567,95.4105255 C78.835495,95.3844909 78.8557977,95.3572263 78.8756903,95.3299617 C78.8814325,95.3221718 78.8873798,95.3147919 78.8929169,95.306797 C78.9017353,95.2942922 78.9103486,95.2815824 78.9187568,95.2688725 C78.9210126,95.2653876 78.9238837,95.2623126 78.9261396,95.2588277 L91.2765702,76.1373157 C91.7414827,75.4794801 91.7870101,74.6133674 91.3873125,73.9087925 L89.0951523,69.8631752 L95.1919251,71.6577196 C99.1526024,72.823333 101.918699,76.5198402 101.918699,80.6470463 L101.918699,96.9106941 L95.9868086,96.9106941 Z" id="Shape"></path>
        </g>
    </g>
</svg>