<?xml version="1.0" encoding="UTF-8"?>
<svg width="185px" height="226px" viewBox="0 0 185 226" version="1.1" xmlns="http://www.w3.org/2000/svg" xmlns:xlink="http://www.w3.org/1999/xlink">
    <!-- Generator: Sketch 48.2 (47327) - http://www.bohemiancoding.com/sketch -->
    <title>Slice</title>
    <desc>Created with Sketch.</desc>
    <defs></defs>
    <g id="Page-1" stroke="none" stroke-width="1" fill="none" fill-rule="evenodd">
        <g id="map-pin" fill="#F098B8" stroke="#000000" stroke-linecap="round" stroke-linejoin="round" stroke-width="2">
            <path d="M185,92.4545446 C185,164.363636 92.5,226 92.5,226 C92.5,226 0,164.363636 0,92.4545446 C7.61245779e-07,41.3933094 41.4136612,-2.28100368e-15 92.5,0 C143.586339,2.28100368e-15 184.999999,41.3933094 185,92.4545446 Z" id="Shape"></path>
        </g>
        <g id="map-pin" transform="translate(19.000000, 23.000000)" fill="#FFFFFF" stroke="#000000" stroke-linecap="round" stroke-linejoin="round" stroke-width="2">
            <path d="M147,73.636363 C147,130.909091 73.5,180 73.5,180 C73.5,180 0,130.909091 0,73.636363 C6.04881781e-07,32.9681225 32.9070713,-1.8167286e-15 73.5,0 C114.092929,1.8167286e-15 146.999999,32.9681225 147,73.636363 Z" id="Shape"></path>
        </g>
        <g id="001-wine" transform="translate(41.000000, 50.000000)" fill="#000000" fill-rule="nonzero">
            <path d="M14.5483807,13.0483807 L12.9516193,13.0483807 L12.9516193,11.4516193 C12.9516193,10.649854 12.3017653,10 11.5,10 C10.6982347,10 10.0483807,10.649854 10.0483807,11.4516193 L10.0483807,13.0483807 L8.45161933,13.0483807 C7.649854,13.0483807 7,13.6982347 7,14.5 C7,15.3017653 7.649854,15.9516193 8.45161933,15.9516193 L10.0483807,15.9516193 L10.0483807,17.5483807 C10.0483807,18.350146 10.6982347,19 11.5,19 C12.3017653,19 12.9516193,18.350146 12.9516193,17.5483807 L12.9516193,15.9516193 L14.5483807,15.9516193 C15.350146,15.9516193 16,15.3017653 16,14.5 C16,13.6982347 15.3499469,13.0483807 14.5483807,13.0483807 Z" id="Shape"></path>
            <path d="M92.5483807,13.0483807 L90.9516193,13.0483807 L90.9516193,11.4516193 C90.9516193,10.649854 90.3017653,10 89.5,10 C88.6982347,10 88.0483807,10.649854 88.0483807,11.4516193 L88.0483807,13.0483807 L86.4516193,13.0483807 C85.649854,13.0483807 85,13.6982347 85,14.5 C85,15.3017653 85.649854,15.9516193 86.4516193,15.9516193 L88.0483807,15.9516193 L88.0483807,17.5483807 C88.0483807,18.350146 88.6982347,19 89.5,19 C90.3017653,19 90.9516193,18.350146 90.9516193,17.5483807 L90.9516193,15.9516193 L92.5483807,15.9516193 C93.350146,15.9516193 94,15.3017653 94,14.5 C94,13.6982347 93.3499469,13.0483807 92.5483807,13.0483807 Z" id="Shape"></path>
            <path d="M53.5483807,3.04838067 L51.9516193,3.04838067 L51.9516193,1.45161933 C51.9516193,0.649853995 51.3017653,0 50.5,0 C49.6982347,0 49.0483807,0.649853995 49.0483807,1.45161933 L49.0483807,3.04838067 L47.4516193,3.04838067 C46.649854,3.04838067 46,3.69823467 46,4.5 C46,5.30176533 46.649854,5.95161933 47.4516193,5.95161933 L49.0483807,5.95161933 L49.0483807,7.54838067 C49.0483807,8.350146 49.6982347,9 50.5,9 C51.3017653,9 51.9516193,8.350146 51.9516193,7.54838067 L51.9516193,5.95161933 L53.5483807,5.95161933 C54.350146,5.95161933 55,5.30176533 55,4.5 C55,3.69823467 54.3499469,3.04838067 53.5483807,3.04838067 Z" id="Shape"></path>
            <path d="M48.7828556,28.8697086 L25.3751298,20.2203637 C23.703178,19.602889 21.8555901,20.3217752 21.0770568,21.8926748 L12.336753,39.5273148 C11.7905968,40.6293329 11.3705537,41.7771625 11.0764234,42.9500512 C11.0680024,42.977264 11.0563736,43.0029105 11.0493561,43.0307106 C10.3544305,45.8373427 10.4117729,48.6698172 11.0974756,51.3172842 C11.1032901,51.3396026 11.1087035,51.3621167 11.114518,51.3844351 C11.1488031,51.5148213 11.1836897,51.644816 11.2211828,51.7742233 C11.2691018,51.9416111 11.3198278,52.1086072 11.3731602,52.2748203 C11.395215,52.3431458 11.4180717,52.4110798 11.4409285,52.4790138 C11.5574178,52.8276893 11.6839319,53.1738197 11.8236789,53.5162304 C11.8465357,53.5722221 11.8732019,53.6264518 11.8966602,53.6820519 C11.9481881,53.8042156 12.0023225,53.9250088 12.0566575,54.0458021 C12.1206163,54.1887179 12.1841741,54.3316338 12.2521429,54.4723961 C12.2934455,54.5581456 12.3381565,54.6423289 12.381063,54.7274911 C12.6507327,55.2641107 12.9474695,55.7846767 13.2702711,56.2880146 C13.3352324,56.3896218 13.3993917,56.4916207 13.4665585,56.5920533 C13.5457552,56.7099099 13.6277588,56.825613 13.7097624,56.9415119 C13.7955755,57.063284 13.8823911,57.1842731 13.9714122,57.3038917 C14.0441929,57.4011919 14.1179761,57.497709 14.1927618,57.5934431 C14.3034366,57.7355758 14.4165174,57.8757508 14.5316032,58.0147511 C14.5915521,58.0869922 14.6511,58.159429 14.7122518,58.2306911 C14.8630262,58.4068887 15.0182116,58.5797581 15.1762039,58.7502783 C15.2066796,58.7831685 15.2363533,58.8168418 15.2670294,58.8495363 C16.0770408,59.7097722 16.9808853,60.49346 17.9681368,61.1865039 C17.9837756,61.1974673 17.999615,61.2082349 18.0154543,61.2191984 C18.2380069,61.374448 18.46477,61.5248033 18.6957436,61.67046 C18.7306302,61.6925826 18.7657173,61.7145094 18.801005,61.7362404 C19.0123297,61.8674098 19.227063,61.9944678 19.4450041,62.1174146 C19.4951286,62.145802 19.5450526,62.1743852 19.5953775,62.202381 C19.7996849,62.3149517 20.0072002,62.4232154 20.2171215,62.5285424 C20.2790753,62.5596706 20.3400267,62.5919735 20.4023815,62.6223187 C20.452105,62.6465948 20.5034324,62.6683258 20.5535569,62.6920146 L13.4054067,81.1312903 C13.1148852,81.0243971 12.7972966,81.0075604 12.4963493,81.0835212 L1.45372837,83.8795815 C0.632088076,84.0872989 0.0488397588,84.7830837 0.00292574549,85.6110167 C-0.0431887656,86.4387539 0.459459406,87.1922923 1.25363149,87.485955 L21.2540965,94.8762701 C21.4800576,94.9596703 21.7136376,95 21.9442101,95 C22.52405,95 23.085444,94.7451008 23.4623801,94.2801349 C23.9892885,93.6299657 24.0243756,92.7317494 23.5493961,92.044383 L17.1689523,82.8104535 C16.9949201,82.558491 16.7450998,82.3654567 16.4541773,82.2579761 L23.5989191,63.8226159 C25.1493692,64.2405958 26.7437283,64.4487048 28.3362829,64.4487048 C31.0989431,64.4487048 33.8551874,63.8232033 36.3640173,62.5845341 C40.8062482,60.3914611 44.1230845,56.4493333 45.4642148,51.7685459 L50.8704395,32.9016973 C51.3520354,31.2209678 50.4546069,29.4875749 48.7828556,28.8697086 Z M19.173931,90.9654663 L5.46428735,85.8995892 L12.7886752,84.0452072 L14.9420224,84.8408373 L19.173931,90.9654663 Z M47.9722427,32.1097869 L46.0230024,38.9129724 L27.1318922,40.5972258 C26.3042369,40.6708372 25.6947234,41.385808 25.7703111,42.1939677 C25.8458988,43.0021274 26.576914,43.5972838 27.4055718,43.5236723 L45.1554481,41.941222 L42.566419,50.9768313 C41.4522523,54.8653167 38.6966096,58.140243 35.0064462,59.9621263 C31.3160823,61.7840096 26.9811178,62.009151 23.1137142,60.5799926 C22.8855477,60.4956135 22.6603886,60.4049696 22.4378359,60.3102145 C22.3820975,60.2865257 22.3277626,60.2608791 22.2724252,60.2364072 C22.1012,60.1610338 21.9311778,60.0837026 21.7635616,60.0020644 C21.7112316,59.9766136 21.6595032,59.950184 21.6075742,59.9241459 C21.4313366,59.8358513 21.2569034,59.7448159 21.0848763,59.649865 C21.0487866,59.6300917 21.0128975,59.6101226 20.9770084,59.5901536 C20.7737036,59.4758209 20.5728047,59.3577685 20.3757153,59.2342344 C20.3731088,59.2326682 20.3703018,59.231102 20.3676954,59.22934 C19.5153789,58.6946781 18.7234123,58.0764203 18.0030234,57.3867045 C17.9950035,57.3788735 17.9867831,57.3712383 17.9785627,57.3634073 C17.805934,57.19739 17.6373153,57.0270656 17.4731075,56.8528258 C17.4672931,56.846561 17.4610777,56.840492 17.4552632,56.8342272 C17.1214343,56.4788953 16.8062516,56.1067268 16.5099158,55.7198752 C16.4792396,55.6795455 16.4499669,55.6382369 16.4194912,55.5977115 C16.3138288,55.4569492 16.2107729,55.3142291 16.1103235,55.1695513 C16.061402,55.0988765 16.013483,55.0274185 15.9657645,54.9557648 C15.8865679,54.8371251 15.8093762,54.717115 15.733588,54.5961259 C15.6830625,54.5152708 15.6323366,54.4344157 15.5834151,54.3525817 C15.5090304,54.2282645 15.4376531,54.1019895 15.3670779,53.975323 C15.3253743,53.9003412 15.2818663,53.8263382 15.2415662,53.750769 C15.1369063,53.5547981 15.0364569,53.3564779 14.9408194,53.155221 C14.9145542,53.1000125 14.8908954,53.043825 14.8652317,52.9882249 C14.790847,52.8261231 14.7182667,52.6632382 14.6496965,52.4981997 C14.6256367,52.4402503 14.60278,52.3815178 14.5793217,52.3231768 C14.5071425,52.1422806 14.4379707,51.9604055 14.3734104,51.7773557 C14.3621825,51.7454444 14.3505536,51.713533 14.3395263,51.6814259 C13.5682109,49.4362768 13.3853569,47.0484076 13.7751247,44.738457 L19.8233436,44.1992923 C20.6509989,44.1254851 21.2605124,43.4107101 21.1849247,42.6025504 C21.109337,41.7941949 20.3761163,41.1974723 19.549664,41.2728457 L14.6406741,41.7105989 C14.7657847,41.4063644 14.8979128,41.1040876 15.0450783,40.8072925 L23.7855826,23.1724568 C23.8575614,23.0269959 24.0045263,22.9416379 24.1603132,22.9416379 C24.2100366,22.9416379 24.2603616,22.9504478 24.3096841,22.9686549 L47.7170089,31.6179998 C47.9215168,31.693569 48.0309886,31.9046146 47.9722427,32.1097869 Z" id="Shape"></path>
            <path d="M101.997073,85.6113793 C101.951159,84.7838353 101.368312,84.0880484 100.546471,83.8799388 L89.5036499,81.0838699 C89.2029031,81.0079089 88.884713,81.0245498 88.5933896,81.1318349 L81.4480465,62.6921108 C81.4975695,62.6686177 81.5484959,62.6470824 81.5978184,62.6231978 C81.6603737,62.5926568 81.7217261,62.5603538 81.7836799,62.5292254 C81.9932002,62.4240939 82.200515,62.3160257 82.4044213,62.2036504 C82.4553478,62.1754587 82.5058732,62.1464839 82.5563987,62.1179006 C82.7737384,61.995345 82.9876696,61.8686781 83.1983929,61.7378999 C83.234282,61.7155815 83.2699706,61.6932631 83.3056593,61.6707489 C83.5358308,61.5254833 83.7619924,61.3755191 83.9839436,61.2208563 C84.0001839,61.2095013 84.0166247,61.1985378 84.0326645,61.1871828 C85.0193146,60.4943325 85.9225575,59.7112296 86.7321679,58.8515784 C86.7642475,58.8175134 86.7949237,58.7824696 86.8268029,58.7482088 C86.9833917,58.5790586 87.1371736,58.4077548 87.286745,58.2331229 C87.3488993,58.1606859 87.4096502,58.0868784 87.4706015,58.0132668 C87.5844843,57.8758322 87.6963621,57.7370272 87.805834,57.5964602 C87.8816222,57.4991597 87.9566084,57.4014676 88.0303916,57.3026009 C88.1180091,57.1849397 88.2032207,57.065908 88.2878308,56.9460933 C88.371238,56.8282363 88.4546451,56.7105751 88.5350447,56.5905646 C88.6002065,56.4934598 88.6621604,56.3943973 88.7251167,56.2961179 C89.0523292,55.7865137 89.352675,55.2594854 89.6253521,54.716012 C89.6656522,54.6355482 89.7079573,54.556259 89.7470543,54.4752078 C89.8160256,54.3319 89.8807864,54.1864386 89.9459482,54.0409773 C89.9988797,53.9229245 90.0518111,53.8048718 90.1021361,53.6856443 C90.1259953,53.6288694 90.1530625,53.5738564 90.1763203,53.5168857 C90.3164683,53.1731035 90.4435839,52.8257973 90.5602737,52.4757504 C90.582529,52.4097739 90.6045837,52.3439933 90.626037,52.2776253 C90.6797704,52.1098455 90.7310979,51.9414784 90.7794179,51.7723282 C90.8163095,51.6444866 90.8507951,51.5162535 90.8846793,51.3874331 C90.8912957,51.3623738 90.8975111,51.3371187 90.9039271,51.3120594 C91.5884268,48.6661505 91.6451677,45.8356251 90.9506431,43.030942 C90.9438261,43.0031419 90.9319968,42.9774952 90.9235758,42.9502824 C90.629646,41.77739 90.2094024,40.629557 89.6632462,39.5275354 L80.9229426,21.8930369 C80.1444093,20.3219367 78.2968215,19.6026567 76.6246692,20.2205249 L53.2171443,28.8698964 C51.5453931,29.4877646 50.6479646,31.2211629 51.1295605,32.9015059 L56.5353841,51.7684127 C56.8287125,52.7923197 57.2166758,53.7809871 57.6902518,54.7236472 C59.3814514,58.0902066 62.1651638,60.8712008 65.6355814,62.5844342 C66.0726668,62.800179 66.5173711,62.9961505 66.9680903,63.1745022 C69.1051971,64.0208407 71.3816499,64.4486106 73.6633157,64.4484149 C75.2554693,64.4484149 76.8500288,64.2403053 78.4004789,63.8223241 L85.5452205,82.2579369 C85.2540976,82.3654178 85.0044777,82.5584526 84.8304456,82.810416 L78.4500018,92.0443739 C77.9752229,92.7315467 78.0101095,93.6299615 78.5370179,94.2801327 C78.9139539,94.7452958 79.4755484,95 80.0551878,95 C80.2857603,95 80.5193403,94.9596702 80.7453014,94.8762697 L100.746167,87.4857361 C101.54074,87.1926598 102.043188,86.4393148 101.997073,85.6113793 Z M80.9155241,59.6505392 C80.743497,59.7454904 80.5690638,59.8365261 80.3928262,59.9248209 C80.3408972,59.9508591 80.2891688,59.9772888 80.2368388,60.0027397 C80.0692226,60.0841824 79.8992004,60.1617096 79.7279753,60.2370832 C79.6726378,60.2613594 79.6183029,60.287006 79.5625645,60.3108907 C79.3398114,60.4058419 79.1148528,60.4964861 78.8866862,60.5806696 C75.0188818,62.0098324 70.6845188,61.7846903 66.9939545,59.9628014 C63.3035907,58.1409125 60.5481485,54.8657804 59.4339818,50.9774787 L56.8449528,41.9418416 L61.4614163,42.3533622 C62.287267,42.429519 63.0210892,41.8320115 63.0966769,41.0236535 C63.1722646,40.2154913 62.5625506,39.5007141 61.7348954,39.4269067 L55.9773985,38.9135827 L54.0279577,32.1101805 C53.9692118,31.9052033 54.0786837,31.694157 54.28259,31.6187834 L77.6899144,22.9694118 C77.8934197,22.8940382 78.1191803,22.9817457 78.2142163,23.1736059 L86.95452,40.8083002 C87.1016854,41.1050962 87.2338135,41.4073739 87.3589242,41.7116094 L69.673007,40.1346359 C68.8441489,40.0606327 68.1133341,40.6561825 68.0377464,41.4643446 C67.9621587,42.2725068 68.5716722,42.9870882 69.3993275,43.0610915 L88.2244735,44.7396725 C88.6140409,47.0496303 88.4311868,49.4375069 87.660072,51.6826629 C87.6490446,51.7147701 87.6376162,51.7466815 87.6261879,51.778593 C87.561828,51.9616433 87.4924558,52.1435189 87.4202766,52.3244157 C87.3968183,52.3827569 87.374162,52.4412938 87.3499018,52.4994392 C87.281532,52.6644782 87.2089518,52.8275593 87.1343666,52.9894659 C87.1089034,53.0450662 87.0850441,53.1012538 87.0587789,53.1564626 C86.9631414,53.3575242 86.862692,53.5560408 86.7580321,53.7520123 C86.717732,53.8275817 86.674224,53.901585 86.6325204,53.9765671 C86.5619452,54.103234 86.4905679,54.2295093 86.4161832,54.3538269 C86.3672617,54.4356611 86.3165358,54.5165165 86.2660103,54.5973719 C86.1902221,54.7183613 86.1130304,54.8383718 86.0338338,54.9570119 C85.9861153,55.02847 85.9383968,55.0999282 85.8892748,55.170799 C85.7888254,55.3154773 85.6857695,55.458002 85.5801071,55.5989605 C85.5498319,55.6394861 85.5205592,55.6807948 85.4896826,55.7211246 C85.1933467,56.1079774 84.8781641,56.480147 84.5443351,56.83548 C84.5385207,56.8417448 84.5323052,56.8478139 84.5264908,56.8540787 C84.362283,57.0283191 84.1938648,57.1984482 84.0210357,57.3646618 C84.0130157,57.3724928 84.0047953,57.3801281 83.9965749,57.3879591 C83.2761861,58.077677 82.484019,58.6959367 81.631903,59.2306002 C81.6292966,59.2321664 81.6266901,59.2337326 81.6238831,59.2354946 C81.4267937,59.3590291 81.2258948,59.4770819 81.02259,59.5914149 C80.9875029,59.6107967 80.9514133,59.63057 80.9155241,59.6505392 Z M82.8260683,90.9660412 L87.0579769,84.8413934 L89.211324,84.0457608 L96.5357117,85.9001485 L82.8260683,90.9660412 Z" id="Shape"></path>
        </g>
    </g>
</svg>